<svg xmlns="http://www.w3.org/2000/svg" width="52" height="55" fill="none"><path fill="#FE646F" d="M9.487 54.194a6.945 6.945 0 0 1-6.945-6.945V22.943h13.89V47.25a6.945 6.945 0 0 1-6.945 6.945"/><path fill="#FFC344" d="M16.432 4.278H2.542V2.325c0-.84.68-1.52 1.52-1.52h10.85c.84 0 1.52.68 1.52 1.52z"/><path fill="#FEB237" d="M14.913.806H12.09c.84 0 1.52.68 1.52 1.519v1.953h2.82V2.325c0-.84-.68-1.52-1.518-1.52"/><path fill="#FFC344" d="M2.542 12.959h13.89v3.472H2.542z"/><path fill="#FEB237" d="M13.61 12.959h2.822v3.472H13.61z"/><path fill="#D8ECFE" d="M2.542 16.432h13.89v6.51H2.542z"/><path fill="#FD4755" d="M13.61 22.942V47.25a6.95 6.95 0 0 1-5.534 6.802q.685.142 1.411.143a6.945 6.945 0 0 0 6.945-6.945V22.942z"/><path fill="#C4E2FF" d="M13.61 16.432h2.822v6.51H13.61z"/><path fill="#FFE177" d="M16.649 12.96H2.325c-.839 0-1.519-.68-1.519-1.52V5.797c0-.839.68-1.519 1.52-1.519h14.323c.839 0 1.52.68 1.52 1.52v5.642c0 .84-.681 1.52-1.52 1.52"/><path fill="#FFD15B" d="M16.649 4.278h-2.822c.84 0 1.52.68 1.52 1.52v5.642c0 .84-.68 1.52-1.52 1.52h2.822c.839 0 1.519-.68 1.519-1.52V5.797c0-.839-.68-1.519-1.52-1.519"/><path fill="#D8ECFE" d="M8.185 41.173H2.542v-13.89h5.643c.719 0 1.302.583 1.302 1.302v11.286c0 .719-.583 1.302-1.302 1.302M36.832 1.022c-7.658 0-13.89 6.231-13.89 13.89 0 5.739 3.499 10.675 8.475 12.79v3.896c0 .967 1.169 1.451 1.852.767l3.564-3.563c7.658 0 13.89-6.23 13.89-13.89s-6.231-13.89-13.89-13.89"/><path fill="#C4E2FF" d="M45.503 4.07a13.82 13.82 0 0 1 3.049 8.672c0 7.659-6.231 13.89-13.89 13.89-3.276 0-6.29-1.141-8.668-3.046a13.97 13.97 0 0 0 5.422 4.116v3.896c0 .967 1.17 1.451 1.853.767l3.563-3.563c7.66 0 13.89-6.231 13.89-13.89 0-4.382-2.04-8.295-5.219-10.843"/><path fill="#FE646F" d="M36.833 7.968a1.736 1.736 0 1 0 0-3.473 1.736 1.736 0 0 0 0 3.473M36.622 16.007a1.736 1.736 0 1 0 0-3.473 1.736 1.736 0 0 0 0 3.473M29.02 17.3a2.604 2.604 0 1 0 0-5.21 2.604 2.604 0 0 0 0 5.21M43.758 13.95a2.604 2.604 0 1 0 0-5.209 2.604 2.604 0 0 0 0 5.209M37.95 25.25a2.604 2.604 0 1 0 0-5.209 2.604 2.604 0 0 0 0 5.209"/><path fill="#000" d="M15.501 9.486V7.75a.806.806 0 1 0-1.611 0v1.736a.806.806 0 1 0 1.611 0M12.03 9.486V7.75a.806.806 0 1 0-1.612 0v1.736a.806.806 0 1 0 1.611 0M8.557 9.486V7.75a.806.806 0 1 0-1.612 0v1.736a.806.806 0 1 0 1.612 0M5.084 9.486V7.75a.806.806 0 1 0-1.611 0v1.736a.806.806 0 1 0 1.611 0"/><path fill="#000" d="M17.238 3.548V2.324A2.33 2.33 0 0 0 14.913 0H4.06a2.327 2.327 0 0 0-2.325 2.325v1.222A2.33 2.33 0 0 0 0 5.797v.942a.806.806 0 1 0 1.611 0v-.941c0-.394.32-.715.714-.715h14.324c.394 0 .714.32.714.715v5.642c0 .394-.32.714-.714.714H2.325a.714.714 0 0 1-.714-.714v-.942a.806.806 0 1 0-1.611 0v.942c0 1.08.739 1.989 1.737 2.25v33.56c0 4.273 3.477 7.75 7.75 7.75a7.7 7.7 0 0 0 5.48-2.27 7.7 7.7 0 0 0 2.271-5.48v-4.922a.806.806 0 1 0-1.611 0v4.921c0 1.64-.64 3.181-1.799 4.34a6.1 6.1 0 0 1-4.34 1.8 6.146 6.146 0 0 1-6.14-6.14v-5.27h4.837a2.11 2.11 0 0 0 2.108-2.108V28.585a2.11 2.11 0 0 0-2.108-2.108H3.348v-2.729h12.279v14.82a.806.806 0 1 0 1.611 0V13.69a2.33 2.33 0 0 0 1.736-2.249V5.798a2.33 2.33 0 0 0-1.736-2.25m-1.612-.076H3.348V2.325c0-.394.32-.714.713-.714h10.852c.393 0 .713.32.713.714zM8.185 28.089c.274 0 .496.222.496.496V39.87a.497.497 0 0 1-.496.497H3.348v-1.861h.93a.806.806 0 1 0 0-1.611h-.93v-1.862h2.667a.806.806 0 1 0 0-1.61H3.348V31.56h2.667a.806.806 0 1 0 0-1.611H3.348v-1.861zm7.442-5.952H3.348v-4.9h12.279zm0-6.511H3.348v-1.861h12.279zM36.833.217c-2.531 0-5.029.658-7.223 1.902a.806.806 0 0 0 .795 1.402 13.05 13.05 0 0 1 6.428-1.693c7.214 0 13.084 5.87 13.084 13.084 0 7.215-5.87 13.084-13.084 13.084a.8.8 0 0 0-.57.236l-3.565 3.564a.265.265 0 0 1-.303.06.27.27 0 0 1-.173-.258v-3.895a.81.81 0 0 0-.49-.742 13.08 13.08 0 0 1-7.983-12.049c0-3.49 1.364-6.776 3.84-9.25a.805.805 0 1 0-1.138-1.14 14.6 14.6 0 0 0-4.313 10.39 14.68 14.68 0 0 0 8.473 13.313v3.373a1.894 1.894 0 0 0 1.892 1.892c.492 0 .973-.192 1.335-.555l3.332-3.331c7.948-.18 14.358-6.701 14.358-14.692C51.528 6.81 44.936.217 36.833.217"/><path fill="#000" d="M36.832 8.773a2.545 2.545 0 0 0 2.542-2.542 2.545 2.545 0 0 0-2.542-2.542 2.545 2.545 0 0 0-2.541 2.542 2.545 2.545 0 0 0 2.541 2.542m0-3.472a.932.932 0 0 1 0 1.86.932.932 0 0 1 0-1.86M36.622 16.812a2.545 2.545 0 0 0 2.542-2.542 2.545 2.545 0 0 0-2.542-2.541 2.545 2.545 0 0 0-2.542 2.541 2.545 2.545 0 0 0 2.542 2.542m0-3.472a.932.932 0 0 1 0 1.86.932.932 0 0 1 0-1.86M25.61 14.695c0 1.88 1.53 3.41 3.41 3.41s3.41-1.53 3.41-3.41-1.53-3.41-3.41-3.41-3.41 1.53-3.41 3.41m5.208 0a1.8 1.8 0 0 1-1.799 1.799 1.8 1.8 0 0 1-1.798-1.799 1.8 1.8 0 0 1 1.799-1.799 1.8 1.8 0 0 1 1.798 1.8M47.168 11.346c0-1.88-1.53-3.41-3.41-3.41s-3.41 1.53-3.41 3.41 1.53 3.41 3.41 3.41 3.41-1.53 3.41-3.41m-3.41 1.798a1.8 1.8 0 0 1-1.799-1.799 1.8 1.8 0 0 1 1.8-1.798 1.8 1.8 0 0 1 1.798 1.798 1.8 1.8 0 0 1-1.799 1.8M34.54 22.645c0 1.88 1.53 3.41 3.41 3.41s3.41-1.53 3.41-3.41-1.529-3.41-3.41-3.41c-1.88 0-3.41 1.53-3.41 3.41m5.21 0a1.8 1.8 0 0 1-1.8 1.799 1.8 1.8 0 0 1-1.798-1.799 1.8 1.8 0 0 1 1.799-1.798 1.8 1.8 0 0 1 1.798 1.798M31.624 21.305a.806.806 0 1 0 0-1.612.806.806 0 0 0 0 1.612M31.916 9.775a.806.806 0 1 0 0-1.61.806.806 0 0 0 0 1.61M43.18 18.92a.806.806 0 1 0 0-1.61.806.806 0 0 0 0 1.61"/></svg>