<svg xmlns="http://www.w3.org/2000/svg" width="51" height="55" fill="none"><path fill="#C8EFFE" d="M47.096 11.337v17.117l-8.712 5.21-4.958-5.21V11.336z"/><path fill="#F9F3F1" d="M38.602 11.337h3.32v20.702h-3.32z"/><path fill="#99E6FC" d="M47.097 11.337v17.117l-8.711 5.21-1.714-1.8 5.702-3.41V11.336z"/><path fill="#FE646F" d="M47.096 28.454V47.36a6.8 6.8 0 0 1-2.002 4.833 6.836 6.836 0 0 1-11.668-4.833V28.454z"/><path fill="#FD4755" d="M47.097 28.453v18.905a6.8 6.8 0 0 1-2.002 4.833 6.8 6.8 0 0 1-4.833 2.003c-.83 0-1.625-.149-2.36-.42a6.85 6.85 0 0 0 2.47-1.583 6.8 6.8 0 0 0 2.002-4.833V28.453z"/><path fill="#FFE177" d="M47.098 14.923H33.426a2.77 2.77 0 0 1-2.772-2.773V3.578A2.77 2.77 0 0 1 33.426.806h13.671a2.77 2.77 0 0 1 2.773 2.772v8.572a2.77 2.77 0 0 1-2.773 2.773"/><path fill="#FECE85" d="M49.87 3.578v8.573c0 1.53-1.24 2.772-2.772 2.772h-5.646a2.773 2.773 0 0 0 2.773-2.773V3.579A2.773 2.773 0 0 0 41.452.806h5.646a2.77 2.77 0 0 1 2.772 2.772"/><path fill="#FE646F" d="M26.398 3.156c0 4.832-2.605 8.042-5.923 10.567a34 34 0 0 1-2.315 1.605l-4.059.774-.5-3.5c1.79-1.063 3.324-2.04 4.562-3.041v-.002c2.268-1.834 3.536-3.746 3.536-6.403a2.35 2.35 0 1 1 4.699 0"/><path fill="#FD4755" d="M26.398 3.156c0 4.832-2.605 8.042-5.923 10.567-3.063-.979-2.33-4.095-2.312-4.162v-.002c2.268-1.834 3.536-3.746 3.536-6.403a2.35 2.35 0 1 1 4.699 0"/><path fill="#01D0FB" d="M9.045 39.672C4.708 42.446.805 45.929.805 51.844a2.35 2.35 0 1 0 4.7 0c0-4.107 3.03-6.437 8.097-9.447l-1.442-2.725z"/><path fill="#FE646F" d="m13.01 14.923.592 3.13c-5.067 3.01-8.098 5.34-8.098 9.446 0 4.107 3.03 6.437 8.098 9.448.382.226 3.672-.759 4.078-.523 1.114.65 1.114.65.479 3.248 4.336 2.774 8.239 6.257 8.239 12.172a2.35 2.35 0 1 1-4.699 0c0-4.107-3.03-6.437-8.097-9.447q-.574-.342-1.183-.695a94 94 0 0 1-3.374-2.03C4.708 36.898.805 33.414.805 27.499c0-5.914 3.902-9.397 8.239-12.171z"/><path fill="#FD4755" d="M26.398 51.844c0-4.831-2.605-8.041-5.923-10.567-3.063.979-2.33 4.095-2.312 4.163v.001c2.268 1.835 3.536 3.747 3.536 6.403a2.35 2.35 0 1 0 4.699 0"/><path fill="#01D0FB" d="M26.398 27.499c0 4.667-2.43 7.821-5.587 10.307a33 33 0 0 1-2.652 1.866 94 94 0 0 0-3.374-2.03q-.61-.356-1.183-.695c1.509-.898 2.838-1.734 3.96-2.576 2.644-1.981 4.137-3.989 4.137-6.872s-1.493-4.89-4.137-6.87c-1.122-.843-2.451-1.68-3.96-2.577q-.574-.34-1.183-.695a96 96 0 0 1-3.375-2.029C4.707 12.553.806 9.07.806 3.156a2.35 2.35 0 1 1 4.698 0c0 4.106 3.03 6.436 8.098 9.447q.573.34 1.182.695c1.114.649 2.26 1.316 3.376 2.03q.592.377 1.167.774c3.846 2.653 7.07 6.02 7.07 11.397"/><path fill="#01C0FA" d="M26.398 27.499c0 4.667-2.43 7.821-5.587 10.307.335-3.47-3.249-3.247-3.249-3.247v-.188c2.644-1.981 4.137-3.989 4.137-6.872s-1.493-4.89-4.137-6.87v-.002c2.613-1.419 1.765-4.524 1.765-4.524 3.846 2.652 7.07 6.02 7.07 11.396"/><path fill="#000" d="M47.097 0h-1.885a.806.806 0 1 0 0 1.611h1.885a1.97 1.97 0 0 1 1.967 1.967v8.573a1.97 1.97 0 0 1-1.967 1.966h-13.67a1.97 1.97 0 0 1-1.967-1.967V3.579a1.97 1.97 0 0 1 1.967-1.967h8.025a.806.806 0 0 0 0-1.611h-8.025a3.58 3.58 0 0 0-3.579 3.578v8.573a3.584 3.584 0 0 0 2.773 3.485V47.36c0 4.213 3.427 7.641 7.64 7.641 4.214 0 7.642-3.428 7.642-7.641V15.636a3.584 3.584 0 0 0 2.772-3.485V3.577A3.58 3.58 0 0 0 47.097 0M34.232 27.648v-11.92h3.565v11.92zm5.176-11.92h1.708v11.92h-1.708zm3.32 0h3.564v11.92h-3.565zm-2.466 37.66a6.037 6.037 0 0 1-6.03-6.03V29.26h12.06v18.099a6.037 6.037 0 0 1-6.03 6.03"/><path fill="#000" d="M33.166 3.679v8.371a.806.806 0 0 0 1.611 0V3.68a.806.806 0 1 0-1.611 0M37.36 3.679v8.371a.806.806 0 0 0 1.61 0V3.68a.806.806 0 0 0-1.61 0M41.553 3.679v8.371a.806.806 0 0 0 1.611 0V3.68a.806.806 0 0 0-1.611 0M47.358 12.05V3.68a.806.806 0 0 0-1.611 0v8.371a.806.806 0 0 0 1.611 0M23.331 43.854a.806.806 0 0 0-.133 1.132c1.611 2.04 2.394 4.284 2.394 6.858 0 .852-.692 1.545-1.543 1.545a1.546 1.546 0 0 1-1.544-1.545c0-4.72-3.68-7.281-8.49-10.139q-.578-.343-1.19-.699a93 93 0 0 1-3.346-2.013c-3.89-2.488-7.867-5.8-7.867-11.494 0-3.128.896-6.897 7.44-11.215.99.618 1.99 1.203 2.962 1.77l.013.007C7.799 20.655 4.699 23.17 4.699 27.5c0 4.72 3.68 7.281 8.492 10.14q.576.344 1.188.699c1.097.639 2.23 1.3 3.345 2.013 1.154.738 2.116 1.426 2.942 2.102a.803.803 0 0 0 1.133-.112.806.806 0 0 0-.112-1.134 29 29 0 0 0-2.065-1.534c3.902-2.653 7.582-6.224 7.582-12.174 0-5.948-3.679-9.518-7.58-12.171 3.902-2.654 7.58-6.224 7.58-12.172A3.16 3.16 0 0 0 24.049 0a3.16 3.16 0 0 0-3.05 2.35H6.204A3.16 3.16 0 0 0 3.155 0 3.16 3.16 0 0 0 0 3.156c0 5.948 3.678 9.518 7.58 12.172C3.678 17.98 0 21.55 0 27.498c0 5.95 3.679 9.52 7.58 12.174C3.68 42.325 0 45.895 0 51.844A3.16 3.16 0 0 0 3.155 55c1.461 0 2.694-1 3.05-2.35h14.793a3.16 3.16 0 0 0 3.05 2.35 3.16 3.16 0 0 0 3.156-3.156c0-2.95-.897-5.52-2.74-7.857a.806.806 0 0 0-1.133-.133M13.264 24.27h6.749c.455.75.73 1.544.833 2.424H6.358c.102-.88.377-1.674.833-2.424h2.313a.806.806 0 1 0 0-1.612h-1.01c1.196-1.18 2.892-2.334 5.108-3.666 2.216 1.332 3.912 2.487 5.107 3.666h-5.445a.806.806 0 0 0 0 1.612m.338 11.739c-2.217-1.333-3.913-2.487-5.109-3.668H18.71c-1.195 1.18-2.891 2.335-5.108 3.668m6.411-5.279H7.19a5.9 5.9 0 0 1-.832-2.424h14.488a5.9 5.9 0 0 1-.833 2.424m2.492-27.573c0-.852.692-1.545 1.544-1.545.85 0 1.543.693 1.543 1.545 0 2.539-.76 4.753-2.324 6.77-1.485 1.915-3.549 3.42-5.116 4.447a109 109 0 0 0-2.975-1.78c4.228-2.593 7.328-5.107 7.328-9.437m-2.492 3.23H7.19a5.9 5.9 0 0 1-.833-2.424h14.49a5.9 5.9 0 0 1-.834 2.424m-1.304 1.612c-1.195 1.18-2.89 2.334-5.107 3.666-2.217-1.332-3.912-2.487-5.108-3.666zM3.935 9.925C2.371 7.91 1.611 5.695 1.611 3.156c0-.852.693-1.545 1.544-1.545s1.544.693 1.544 1.545c0 4.718 3.68 7.28 8.492 10.14q.576.341 1.188.698c1.103.642 2.243 1.306 3.347 2.013 3.89 2.488 7.866 5.799 7.866 11.492 0 3.128-.897 6.898-7.44 11.216-1.007-.63-2.038-1.231-2.962-1.77l-.013-.007c4.228-2.594 7.328-5.108 7.328-9.44 0-4.717-3.68-7.28-8.492-10.139q-.577-.342-1.188-.698c-1.103-.642-2.244-1.307-3.347-2.012-1.602-1.024-3.919-2.629-5.543-4.724M7.19 48.614h12.824c.455.75.73 1.544.832 2.424H6.357c.103-.88.378-1.674.833-2.424m11.52-1.612H8.494c1.196-1.18 2.892-2.334 5.109-3.666 2.217 1.332 3.913 2.486 5.108 3.666M4.7 51.844c0 .852-.693 1.545-1.544 1.545a1.546 1.546 0 0 1-1.544-1.545c0-2.539.76-4.754 2.325-6.77 1.485-1.915 3.547-3.419 5.114-4.445 1.008.63 2.04 1.231 2.964 1.77l.013.007C7.799 45 4.699 47.513 4.699 51.844"/></svg>