<svg xmlns="http://www.w3.org/2000/svg" width="53" height="55" fill="none"><path fill="#F4F6F8" fill-rule="evenodd" d="M17.594 6.64H3.514v40.542c0 3.872 3.167 7.04 7.04 7.04 3.872 0 7.04-3.168 7.04-7.04z" clip-rule="evenodd"/><path fill="#E4E8EB" fill-rule="evenodd" d="M18.007.78H3.1A2.324 2.324 0 0 0 .78 3.1v2.333a2.324 2.324 0 0 0 2.32 2.32h14.906a2.324 2.324 0 0 0 2.32-2.32V3.1a2.324 2.324 0 0 0-2.32-2.32" clip-rule="evenodd"/><path fill="#F76C82" fill-rule="evenodd" d="M3.513 32.272v14.91c0 3.871 3.168 7.04 7.04 7.04 3.873 0 7.04-3.168 7.04-7.04v-14.91z" clip-rule="evenodd"/><path fill="#A9B0BB" fill-rule="evenodd" d="m32.974 37.76 2.705-2.704 5.22 5.22-2.705 2.706z" clip-rule="evenodd"/><path fill="#A9B0BB" d="M35.468 37.547c5.345-5.345 5.345-14.01 0-19.356-5.346-5.345-14.012-5.345-19.357 0s-5.345 14.011 0 19.356 14.011 5.345 19.357 0"/><path fill="#A4D4FF" d="M28.196 38.007c5.606-1.326 9.077-6.945 7.752-12.552s-6.945-9.077-12.552-7.752-9.077 6.945-7.752 12.552 6.945 9.077 12.551 7.752"/><path fill="#7E6451" fill-rule="evenodd" d="m37.587 41.728 2.067-2.067a1.76 1.76 0 0 1 2.483 0l9.499 9.499a1.76 1.76 0 0 1 0 2.483l-2.067 2.067a1.76 1.76 0 0 1-2.483 0l-9.5-9.5a1.76 1.76 0 0 1 0-2.482" clip-rule="evenodd"/><path fill="#F76C82" fill-rule="evenodd" d="m25.796 22.993 2.237 3.648c.91 1.484 1.231 3.95 0 5.18a3.174 3.174 0 0 1-4.475 0c-1.231-1.23-.91-3.696 0-5.18z" clip-rule="evenodd"/><path fill="#000" fill-rule="evenodd" d="M27.483 31.27a2.38 2.38 0 0 1-1.687.696c-.639 0-1.241-.248-1.686-.695-.907-.905-.666-2.952.11-4.222l1.576-2.565 1.572 2.565c.78 1.27 1.017 3.317.115 4.222m-1.026-8.685a.778.778 0 0 0-1.326 0l-2.237 3.648c-1.105 1.797-1.372 4.654.11 6.14a3.93 3.93 0 0 0 2.792 1.151c1.053 0 2.044-.41 2.787-1.151 1.483-1.485 1.216-4.343.116-6.14zm24.628 28.506-2.07 2.067c-.377.381-1 .38-1.377 0l-9.499-9.5a.973.973 0 0 1 0-1.38l2.065-2.067a.98.98 0 0 1 1.383 0l9.498 9.5a.97.97 0 0 1 .283.69c0 .261-.1.507-.283.69M36.793 37.26a15 15 0 0 1-1.603 1.603l2.08 2.08 1.598-1.604zm-23.91-9.393c0 7.119 5.794 12.91 12.913 12.91 7.115 0 12.91-5.791 12.91-12.91s-5.795-12.91-12.91-12.91c-7.12 0-12.913 5.792-12.913 12.91m3.929 19.313a6.27 6.27 0 0 1-6.26 6.261 6.27 6.27 0 0 1-6.261-6.261V33.05h7.994a14.53 14.53 0 0 0 4.527 6.153zM1.562 5.43V3.1c0-.849.685-1.54 1.54-1.54h14.904c.849 0 1.54.691 1.54 1.54v2.333c0 .85-.691 1.54-1.54 1.54H3.101a1.54 1.54 0 0 1-1.54-1.54m9.765 22.437c0 1.252.162 2.465.46 3.623H4.292v-5.18H6.4c.43 0 .776-.348.776-.779 0-.43-.346-.779-.775-.779H4.29v-3.91h4.877c.43 0 .775-.349.775-.78a.776.776 0 0 0-.775-.779H4.291v-3.911H6.4c.43 0 .776-.349.776-.78 0-.43-.346-.779-.775-.779H4.29V8.531h12.52v8.002c-3.337 2.653-5.485 6.748-5.485 11.335m40.858 20.74-9.498-9.5a2.53 2.53 0 0 0-2.489-.643l-2.451-2.452a14.4 14.4 0 0 0 2.514-8.145c0-7.977-6.49-14.468-14.464-14.468-2.714 0-5.255.75-7.424 2.054V8.51a3.1 3.1 0 0 0 2.73-3.077V3.099A3.1 3.1 0 0 0 18.005.001H3.101A3.1 3.1 0 0 0 0 3.099v2.333a3.1 3.1 0 0 0 2.735 3.077V47.18c0 4.312 3.505 7.82 7.816 7.82 4.312 0 7.822-3.507 7.822-7.82v-6.897a14.37 14.37 0 0 0 7.424 2.055c3.017 0 5.82-.93 8.14-2.518l2.453 2.453a2.6 2.6 0 0 0-.095.696c0 .678.262 1.315.74 1.792l9.497 9.5a2.543 2.543 0 0 0 3.589 0l2.064-2.068a2.53 2.53 0 0 0 .744-1.792c0-.679-.267-1.315-.744-1.793M25.796 37.523c5.323 0 9.656-4.33 9.656-9.655 0-5.323-4.333-9.654-9.656-9.654-5.322 0-9.655 4.331-9.655 9.654 0 5.324 4.333 9.655 9.655 9.655m0-20.867c-6.187 0-11.216 5.03-11.216 11.212 0 6.184 5.03 11.214 11.216 11.214 6.182 0 11.212-5.03 11.212-11.214 0-6.182-5.03-11.212-11.212-11.212" clip-rule="evenodd"/></svg>