<svg xmlns="http://www.w3.org/2000/svg" width="48" height="55" fill="none"><path fill="#D9B1EE" d="M42.573 47.176H5.408c-1.621 0-2.485-1.91-1.415-3.128l5.17-5.882c.358-.407.874-.64 1.415-.64h26.825c.541 0 1.057.233 1.415.64l5.17 5.882c1.07 1.217.206 3.128-1.415 3.128"/><path fill="#EEF5F6" d="M23.99.806C11.187.806.806 11.186.806 23.99s10.38 23.185 23.185 23.185 23.184-10.38 23.184-23.185S36.795.806 23.991.806m0 35.204c-6.637 0-12.018-5.382-12.018-12.02 0-6.637 5.38-12.018 12.019-12.018 6.637 0 12.018 5.38 12.018 12.019 0 6.637-5.38 12.019-12.018 12.019"/><path fill="#DEECF1" d="M4.54 23.99C4.54 11.815 13.928 1.83 25.86.88Q24.934.805 23.99.806C11.187.806.806 11.186.806 23.99s10.38 23.185 23.185 23.185q.942 0 1.868-.074C13.927 46.152 4.54 36.167 4.54 23.991"/><path fill="#D9B1EE" d="M23.99 8.074c-8.79 0-15.916 7.127-15.916 15.917 0 8.791 7.126 15.917 15.917 15.917 8.79 0 15.916-7.126 15.916-15.917 0-8.79-7.126-15.917-15.916-15.917m0 27.936c-6.637 0-12.018-5.381-12.018-12.02 0-6.637 5.381-12.017 12.019-12.017 6.637 0 12.018 5.38 12.018 12.018 0 6.637-5.38 12.02-12.018 12.02"/><path fill="#5DE1C4" d="M39.697 48.935H8.284l5.857-18.055H33.84z"/><path fill="#0ED2B3" d="M17.187 30.88 11.33 48.935H8.285L14.14 30.88z"/><path fill="#FFE177" d="M29.266 34.536h-10.55c-1.524 0-2.496-1.624-1.777-2.966l1.064-1.986a2.02 2.02 0 0 1 1.776-1.064h8.423c.743 0 1.425.41 1.776 1.064l1.064 1.986c.719 1.342-.254 2.966-1.776 2.966"/><path fill="#FECE85" d="M22.06 34.536h-3.345c-1.522 0-2.494-1.623-1.776-2.966l1.064-1.986a2.02 2.02 0 0 1 1.776-1.064h3.345c-.742 0-1.426.41-1.776 1.064l-1.063 1.986c-.72 1.343.253 2.966 1.775 2.966"/><path fill="#0ED2B3" d="M10.159 54.194h27.663c1.035 0 1.875-.84 1.875-1.875v-3.384H8.284v3.384c0 1.036.84 1.875 1.875 1.875"/><path fill="#000" d="M47.981 23.99c0-1.47-.134-2.944-.399-4.378a.806.806 0 0 0-1.584.292c.247 1.338.372 2.713.372 4.086 0 3.629-.841 7.09-2.5 10.288a22.6 22.6 0 0 1-5.78 7.091l-1.92-5.92a16.6 16.6 0 0 0 4.543-11.458c0-9.221-7.502-16.723-16.723-16.723S7.268 14.77 7.268 23.991c0 4.295 1.61 8.345 4.544 11.458l-1.92 5.92a22.6 22.6 0 0 1-5.782-7.09A22.1 22.1 0 0 1 1.611 23.99c0-12.34 10.04-22.379 22.38-22.379 4.697 0 9.192 1.44 13 4.161a22.3 22.3 0 0 1 8.06 10.631.806.806 0 0 0 1.516-.546 23.9 23.9 0 0 0-8.639-11.395A23.83 23.83 0 0 0 23.991 0 23.83 23.83 0 0 0 7.027 7.027 23.83 23.83 0 0 0 0 23.99c0 3.834.927 7.648 2.68 11.029a24.1 24.1 0 0 0 3.626 5.176l-2.918 3.32a2.66 2.66 0 0 0-.43 2.885 2.66 2.66 0 0 0 2.45 1.581h2.339l-.229.705a.8.8 0 0 0-.038.248h-.001v3.384A2.684 2.684 0 0 0 10.159 55h2.218a.806.806 0 1 0 0-1.611h-2.218a1.07 1.07 0 0 1-1.069-1.07V49.74h29.801v2.578c0 .59-.48 1.07-1.069 1.07H16.137a.806.806 0 1 0 0 1.611h21.685a2.684 2.684 0 0 0 2.68-2.681v-3.384a.8.8 0 0 0-.04-.248l-.228-.705h2.34a2.66 2.66 0 0 0 2.45-1.58 2.66 2.66 0 0 0-.43-2.885l-2.919-3.32a24.1 24.1 0 0 0 3.626-5.177 24.06 24.06 0 0 0 2.68-11.03M9.393 48.13l5.333-16.445h1.242a2.8 2.8 0 0 0 .269 2.304 2.8 2.8 0 0 0 2.42 1.371h10.668c1 0 1.905-.513 2.42-1.371a2.8 2.8 0 0 0 .268-2.304h1.242l5.333 16.445zm8.198-16.161 1.085-2.027c.211-.394.62-.638 1.066-.638h8.497c.446 0 .855.244 1.066.638l1.085 2.027c.206.384.195.818-.028 1.192a1.18 1.18 0 0 1-1.037.588H18.657c-.436 0-.814-.214-1.038-.588a1.18 1.18 0 0 1-.028-1.192M8.879 23.99c0-8.332 6.78-15.111 15.112-15.111S39.1 15.658 39.1 23.99c0 3.58-1.237 6.97-3.508 9.682l-.866-2.668a12.75 12.75 0 0 0 2.088-7.014c0-7.07-5.753-12.823-12.824-12.823S11.167 16.918 11.167 23.99q0 .15.003.298a.807.807 0 0 0 1.61-.038l-.002-.26c0-6.183 5.03-11.213 11.213-11.213s11.212 5.03 11.212 11.213c0 2.176-.619 4.27-1.793 6.083h-2.206l-.479-.893a2.82 2.82 0 0 0-2.486-1.489h-8.497c-1.041 0-1.994.57-2.486 1.49l-.478.892H14.57a11.2 11.2 0 0 1-1.182-2.424.806.806 0 0 0-1.523.525c.343.994.81 1.944 1.389 2.83l-.866 2.667a15 15 0 0 1-3.509-9.681M5.408 46.37c-.436 0-.803-.237-.983-.634s-.115-.83.173-1.157l2.84-3.23a24 24 0 0 0 1.923 1.655l-1.092 3.366zm38.148-.634c-.18.397-.547.634-.983.634h-2.861l-1.092-3.366q1.006-.777 1.924-1.655l2.839 3.23c.288.328.352.76.173 1.157"/></svg>