<svg xmlns="http://www.w3.org/2000/svg" width="52" height="55" fill="none"><path fill="#fff" d="M25.63 0a.9.9 0 0 0-.38.103S14.366 5.533.792 7.343A.92.92 0 0 0 0 8.256v19.24c0 11.788 6.453 18.78 12.816 22.668s12.712 4.825 12.712 4.825q.136.021.272 0s6.35-.937 12.712-4.825c6.363-3.888 12.816-10.88 12.816-22.667V8.257a.916.916 0 0 0-.791-.915c-13.574-1.81-24.46-7.24-24.46-7.24A.9.9 0 0 0 25.63 0m.034 11.003c9.1 0 16.495 7.394 16.495 16.495 0 9.1-7.394 16.503-16.495 16.503-9.1 0-16.495-7.402-16.495-16.503s7.394-16.495 16.495-16.495m-3.668 8.247v4.589h-4.58a.917.917 0 0 0-.92.913v5.5a.916.916 0 0 0 .92.914h4.58v4.588a.917.917 0 0 0 .922.913h5.492a.917.917 0 0 0 .92-.913v-4.588h4.581a.917.917 0 0 0 .92-.913v-5.501a.916.916 0 0 0-.92-.913h-4.58V19.25a.917.917 0 0 0-.92-.913h-5.54c-.518.046-.875.442-.875.913"/></svg>