<svg xmlns="http://www.w3.org/2000/svg" width="42" height="45" fill="none"><path fill="#0C171A" d="M20.97 0a.8.8 0 0 0-.31.084S11.753 4.526.646 6.007A.75.75 0 0 0 0 6.756v15.742c0 9.644 5.28 15.365 10.486 18.546 5.206 3.182 10.4 3.948 10.4 3.948a.7.7 0 0 0 .223 0s5.195-.767 10.401-3.948 10.486-8.902 10.486-18.546V6.756a.75.75 0 0 0-.648-.749C30.242 4.527 21.336.084 21.336.084A.75.75 0 0 0 20.97 0m.028 9.002c7.446 0 13.495 6.05 13.495 13.496s-6.049 13.503-13.495 13.503S7.502 29.944 7.502 22.498s6.05-13.496 13.496-13.496m-3.001 6.748v3.754H14.25a.75.75 0 0 0-.753.747v4.501a.75.75 0 0 0 .753.747h3.747v3.754a.75.75 0 0 0 .754.747h4.494a.75.75 0 0 0 .752-.747V25.5h3.749a.75.75 0 0 0 .753-.747v-4.5a.75.75 0 0 0-.753-.748h-3.748V15.75a.75.75 0 0 0-.753-.747h-4.533c-.423.038-.716.361-.715.747"/></svg>