<svg xmlns="http://www.w3.org/2000/svg" width="148" height="41" fill="none"><path fill="#4B168C" d="M53.68 22V7.12h3.81v1.71q.75-1.05 1.92-1.56t2.46-.51q1.68 0 3.12.72 1.47.69 2.28 2.19.75-1.38 2.07-2.13 1.35-.78 2.94-.78 1.71 0 3.09.72 1.41.69 2.22 2.13t.81 3.6V22h-3.81v-8.25q0-1.68-.81-2.67t-2.49-.99q-1.65 0-2.49.99t-.84 2.67V22h-3.81v-8.25q0-1.71-.87-2.67-.84-.99-2.43-.99-1.35 0-2.37.87-.99.84-.99 2.79V22zM82.937 5.2q-1.02 0-1.77-.72-.72-.75-.72-1.77 0-1.05.72-1.77.75-.72 1.77-.72 1.05 0 1.77.72t.72 1.77q0 1.02-.72 1.77-.72.72-1.77.72M81.017 22V7.12h3.84V22zm13.637.36q-2.25 0-3.93-.99a7.07 7.07 0 0 1-2.61-2.76q-.93-1.77-.93-4.05 0-2.25.9-4.02a6.8 6.8 0 0 1 2.61-2.76q1.68-1.02 3.96-1.02 2.7 0 4.56 1.35 1.89 1.35 2.55 3.99h-4.11q-.27-.87-1.05-1.47-.75-.63-1.98-.63t-2.01.63-1.17 1.68q-.36 1.02-.36 2.25t.36 2.28q.39 1.02 1.17 1.65.78.6 2.01.6 1.17 0 1.92-.51.75-.54 1.11-1.56h4.11q-.39 1.68-1.41 2.88-.99 1.2-2.46 1.83-1.44.63-3.24.63m13.888 0q-1.32 0-2.46-.54t-1.86-1.53q-.69-1.02-.69-2.4 0-1.65.81-2.7t2.22-1.56q1.44-.51 3.21-.51h3.54q0-1.02-.33-1.71-.3-.69-.93-1.05-.6-.39-1.5-.39-1.05 0-1.89.48-.81.45-.99 1.53h-3.84q.15-1.62 1.11-2.79t2.46-1.8 3.21-.63q2.1 0 3.54.78 1.47.78 2.25 2.22.78 1.41.78 3.36v4.53q.06.66.48.9t1.11.24V22q-1.41 0-2.37-.27-.93-.27-1.53-.78-.6-.54-1.02-1.35-.69 1.17-2.16 1.98-1.44.78-3.15.78m1.11-3.09q.99 0 1.8-.45.84-.45 1.35-1.26t.51-1.86v-.12h-3.3q-.66 0-1.26.21-.6.18-.96.6-.36.39-.36 1.08 0 .93.63 1.38.66.42 1.59.42M120.623 22V7.12h3.81v2.22q.78-1.26 1.98-1.92t2.67-.66v4.02h-1.02q-1.83 0-2.73.87t-.9 2.91V22zm17.071.36q-2.34 0-4.05-1.02a7 7 0 0 1-2.61-2.79q-.93-1.77-.93-3.99 0-2.37.96-4.11a6.8 6.8 0 0 1 2.67-2.7q1.71-.99 3.96-.99 2.22 0 3.87.96 1.68.96 2.61 2.64.96 1.68.96 3.87 0 .39-.03.78-.03.36-.09.69h-11.04q.09 1.05.54 1.86.48.78 1.26 1.23.81.42 1.83.42 1.05 0 1.8-.45.78-.45 1.23-1.38h4.11q-.42 1.32-1.35 2.46t-2.37 1.83q-1.41.69-3.33.69m-3.69-9.21h7.17q-.03-1.5-1.11-2.37-1.05-.87-2.49-.87-1.23 0-2.28.78-1.05.75-1.29 2.46"/><path fill="#637E83" d="M53.218 40v-8.4h1.008v3.54h4.356V31.6h1.008V40h-1.008v-4.032h-4.356V40zm10.76.144a2.97 2.97 0 0 1-1.5-.384 2.77 2.77 0 0 1-1.044-1.08q-.384-.708-.384-1.656 0-.936.36-1.632a2.67 2.67 0 0 1 1.032-1.092q.672-.396 1.56-.396.84 0 1.464.372t.972 1.008q.36.624.36 1.404v.264q0 .096-.012.3h-4.74q.036.588.276 1.056.252.456.672.72.432.264.984.264.624 0 1.044-.288t.612-.78h.996a2.6 2.6 0 0 1-.516.984q-.36.432-.9.684-.528.252-1.236.252m-1.92-3.672h3.744q-.036-.804-.552-1.26t-1.272-.456q-.72 0-1.284.444-.552.432-.636 1.272m8.056 3.672q-.612 0-1.116-.204a1.8 1.8 0 0 1-.804-.612q-.288-.42-.288-1.02 0-.696.36-1.104.36-.42.948-.6a4.2 4.2 0 0 1 1.284-.192h1.608q0-.624-.216-.984a1.2 1.2 0 0 0-.54-.516 1.75 1.75 0 0 0-.744-.156q-.588 0-1.02.288-.42.276-.528.864h-1.032q.06-.648.432-1.092t.936-.672a3.1 3.1 0 0 1 1.212-.24q.9 0 1.452.336.552.324.804.876t.252 1.224v1.824q0 .444.108.672t.552.276V40a2.5 2.5 0 0 1-.72-.096 1.4 1.4 0 0 1-.552-.336 1.44 1.44 0 0 1-.312-.624q-.3.504-.828.852-.516.348-1.248.348m.156-.852q.6 0 1.008-.3a1.93 1.93 0 0 0 .612-.792q.216-.48.216-.996v-.012h-1.524q-.42 0-.792.096a1.15 1.15 0 0 0-.6.324q-.228.228-.228.648 0 .54.384.792.384.24.924.24m4.72.708v-8.4h1.008V40zm5.012 0q-.816 0-1.284-.396t-.468-1.428V34.9h-1.032v-.852h1.032V32.62h1.008v1.428h1.668v.852h-1.668v3.276q0 .564.228.768.228.192.804.192h.636V40zm2.288 0v-8.4h1.008v3.468q.3-.552.852-.852a2.4 2.4 0 0 1 1.2-.312q1.032 0 1.656.648.624.636.624 1.968V40h-.996v-3.372q0-.924-.384-1.392-.372-.468-1.116-.468-.78 0-1.308.564-.528.552-.528 1.584V40zm12.311.144q-.612 0-1.092-.192a2.4 2.4 0 0 1-.804-.528 2.3 2.3 0 0 1-.492-.768 2.5 2.5 0 0 1-.168-.912q0-.516.204-.948.204-.444.516-.792.324-.348.672-.588l.072-.06-.072-.084a3.6 3.6 0 0 1-.516-.792 2.1 2.1 0 0 1-.192-.9q0-.6.276-1.08.288-.48.804-.756.528-.288 1.248-.288t1.248.288q.528.276.816.792.3.504.3 1.2h-.984q0-.468-.168-.78a1.1 1.1 0 0 0-.48-.468 1.55 1.55 0 0 0-.744-.168q-.408 0-.708.168-.3.156-.468.444a1.36 1.36 0 0 0-.156.66q0 .576.42 1.08.432.504 1.056 1.128l1.74 1.716 1.308-2.364h1.044l-1.704 3L99.45 40h-1.248l-1.152-1.14-.06.096a4 4 0 0 1-1.02.852q-.564.336-1.368.336m.048-.876q.564 0 .984-.252.42-.264.804-.756l-2.304-2.256q-.48.3-.804.72-.312.42-.312.984 0 .396.192.756.204.36.564.588.372.216.876.216m9.217.732v-8.4h1.176l2.904 5.832 2.88-5.832h1.188V40h-1.008v-6.576l-2.688 5.376h-.756l-2.688-5.364V40zm12.542.144a2.97 2.97 0 0 1-1.5-.384 2.77 2.77 0 0 1-1.044-1.08q-.384-.708-.384-1.656 0-.936.36-1.632a2.67 2.67 0 0 1 1.032-1.092q.672-.396 1.56-.396.84 0 1.464.372t.972 1.008q.36.624.36 1.404v.264q0 .096-.012.3h-4.74q.036.588.276 1.056.252.456.672.72.432.264.984.264.624 0 1.044-.288t.612-.78h.996a2.6 2.6 0 0 1-.516.984q-.36.432-.9.684-.528.252-1.236.252m-1.92-3.672h3.744q-.036-.804-.552-1.26t-1.272-.456q-.72 0-1.284.444-.552.432-.636 1.272m8.776 3.672q-.912 0-1.572-.42t-1.02-1.128-.36-1.584q0-.864.348-1.572a2.75 2.75 0 0 1 1.02-1.116q.66-.42 1.596-.42.732 0 1.296.3t.876.84V31.6h1.008V40h-.912l-.096-.984q-.288.432-.828.78t-1.356.348m.108-.876q.66 0 1.116-.3.456-.312.684-.816.24-.516.24-1.128 0-.648-.24-1.152t-.696-.792q-.456-.3-1.104-.3-.576 0-1.032.276a2.03 2.03 0 0 0-.732.78q-.264.492-.264 1.188t.276 1.2.732.78q.468.264 1.02.264m5.339-6.54a.7.7 0 0 1-.504-.192.7.7 0 0 1-.192-.504q0-.288.192-.48a.7.7 0 0 1 .504-.192q.288 0 .492.192a.63.63 0 0 1 .204.48q0 .3-.204.504a.7.7 0 0 1-.492.192M128.207 40v-5.952h1.008V40zm5.499.144a3.06 3.06 0 0 1-1.524-.384 2.83 2.83 0 0 1-1.068-1.08q-.396-.708-.396-1.656 0-.924.384-1.62.384-.708 1.056-1.104t1.548-.396q1.056 0 1.776.552.732.552.924 1.476h-1.032a1.3 1.3 0 0 0-.588-.852 1.92 1.92 0 0 0-1.092-.312q-.636 0-1.068.312a2 2 0 0 0-.66.828 2.9 2.9 0 0 0-.216 1.116q0 .66.252 1.176t.684.804q.444.288 1.008.288.624 0 1.092-.3.468-.312.588-.876h1.032q-.12.6-.492 1.056t-.936.72q-.564.252-1.272.252m6.088 0q-.612 0-1.116-.204a1.8 1.8 0 0 1-.804-.612q-.288-.42-.288-1.02 0-.696.36-1.104.36-.42.948-.6a4.2 4.2 0 0 1 1.284-.192h1.608q0-.624-.216-.984a1.2 1.2 0 0 0-.54-.516 1.75 1.75 0 0 0-.744-.156q-.588 0-1.02.288-.42.276-.528.864h-1.032q.06-.648.432-1.092t.936-.672a3.1 3.1 0 0 1 1.212-.24q.9 0 1.452.336.552.324.804.876t.252 1.224v1.824q0 .444.108.672t.552.276V40a2.5 2.5 0 0 1-.72-.096 1.4 1.4 0 0 1-.552-.336 1.44 1.44 0 0 1-.312-.624q-.3.504-.828.852-.516.348-1.248.348m.156-.852q.6 0 1.008-.3a1.93 1.93 0 0 0 .612-.792q.216-.48.216-.996v-.012h-1.524q-.42 0-.792.096a1.15 1.15 0 0 0-.6.324q-.228.228-.228.648 0 .54.384.792.384.24.924.24m4.719.708v-8.4h1.008V40z"/><path fill="#4B168C" d="M18.64 0a.7.7 0 0 0-.276.075S10.447 4.023.575 5.34A.67.67 0 0 0 0 6.005v13.993c0 8.573 4.693 13.658 9.32 16.486s9.246 3.508 9.246 3.508a.7.7 0 0 0 .198 0s4.618-.68 9.245-3.508 9.32-7.913 9.32-16.486V6.005a.666.666 0 0 0-.575-.665C26.882 4.023 18.966.075 18.966.075A.67.67 0 0 0 18.64 0m.025 8.002c6.619 0 11.996 5.377 11.996 11.996s-5.377 12.003-11.996 12.003S6.669 26.617 6.669 19.998 12.046 8.002 18.665 8.002M15.997 14v3.337h-3.33a.667.667 0 0 0-.67.664v4.001a.667.667 0 0 0 .67.664h3.33v3.337a.667.667 0 0 0 .67.664h3.995a.667.667 0 0 0 .67-.664v-3.337h3.33a.667.667 0 0 0 .67-.664v-4a.667.667 0 0 0-.67-.665h-3.33V14a.667.667 0 0 0-.67-.664h-4.029c-.376.034-.636.321-.636.664"/></svg>