<svg width="185" height="40" viewBox="0 0 185 40" fill="none" xmlns="http://www.w3.org/2000/svg">
<g clip-path="url(#clip0_163_714)">
<path d="M29.5961 15.5107C29.0317 14.9722 28.7874 14.5507 29.3899 13.9518C29.594 13.749 29.7249 13.4922 29.9005 13.2666C34.0502 7.94229 30.2957 2.59149 25.2413 0.866307C22.6558 -0.0158748 19.9258 0.129743 18.0303 0.00689453C15.0719 -0.0359967 12.9248 0.126037 10.7883 0.401917C5.80986 1.04581 2.32704 5.78132 2.67891 8.88643C2.8741 10.6079 3.44015 12.2701 4.63186 13.6442C5.45483 14.5925 5.18209 15.0781 4.35438 15.8327C-1.01599 20.7265 -1.45068 27.9661 3.22755 33.3206C6.40229 36.9542 10.7835 38.8377 15.7582 39.8846C16.5042 40.0413 17.2079 40.0318 17.9565 39.8989C21.6873 39.2364 25.0282 37.893 27.8901 35.6934C31.441 32.9643 33.7948 29.6601 33.9874 25.4594C34.162 21.6336 32.543 18.323 29.5961 15.5107ZM10.2433 5.98677C11.0167 5.39953 11.9784 5.17713 12.9406 5.0527C15.9408 4.6635 18.9483 4.5613 21.9389 5.14272C24.1999 5.58222 25.2946 6.71486 25.3062 8.87001C25.2941 8.98068 25.2967 9.36141 25.2044 9.7236C24.7285 11.5912 24.1366 11.8819 22.1008 11.2878C18.6154 10.2706 15.1616 10.4205 11.7241 11.4827C10.2365 11.9423 10.2027 11.9153 9.56542 10.6312C8.49188 8.46599 8.68232 7.17237 10.2433 5.98677ZM12.0818 37.1342L16.9156 27.4922L9.76114 26.4665L24.0696 14.1192L25.0366 13.6103L18.6903 23.6622L25.5204 24.825L12.0818 37.1342Z" fill="black"/>
<path d="M25.5204 24.825L18.6903 23.6622L25.0372 13.6097L24.0702 14.1186L9.76172 26.466L16.9162 27.4917L12.0818 37.1342L25.5204 24.825Z" fill="#DEFB02"/>
</g>
<path d="M53.06 31.24C51.52 31.24 50.16 30.91 48.98 30.25C47.8 29.59 46.88 28.66 46.22 27.46C45.58 26.24 45.26 24.84 45.26 23.26V17.74C45.26 16.16 45.58 14.77 46.22 13.57C46.88 12.35 47.8 11.41 48.98 10.75C50.18 10.09 51.56 9.76 53.12 9.76H56.48C57.98 9.76 59.3 10.06 60.44 10.66C61.58 11.26 62.46 12.11 63.08 13.21C63.72 14.31 64.04 15.58 64.04 17.02H59.96C59.96 15.94 59.64 15.07 59 14.41C58.36 13.75 57.52 13.42 56.48 13.42H53.12C52 13.42 51.1 13.84 50.42 14.68C49.74 15.5 49.4 16.58 49.4 17.92V23.08C49.4 24.42 49.73 25.51 50.39 26.35C51.07 27.17 51.96 27.58 53.06 27.58H56.6C57.62 27.58 58.46 27.21 59.12 26.47C59.8 25.73 60.14 24.81 60.14 23.71V23.05H54.32V19.45H64.22V23.71C64.22 25.17 63.9 26.47 63.26 27.61C62.62 28.75 61.72 29.64 60.56 30.28C59.4 30.92 58.08 31.24 56.6 31.24H53.06ZM71.5592 22.84L63.7892 10H68.2892L73.6292 19.03L78.9692 10H83.4692L75.6992 22.84V31H71.5592V22.84ZM84.6795 10H88.3695L95.2395 22.48L101.96 10H105.65V31H101.6V17.71L97.1895 25.69C96.8895 26.23 96.5795 26.62 96.2595 26.86C95.9595 27.08 95.6095 27.19 95.2095 27.19H94.0695L88.7295 17.71V31H84.6795V10ZM115.917 31.24C114.377 31.24 113.017 30.91 111.837 30.25C110.677 29.59 109.777 28.66 109.137 27.46C108.497 26.24 108.177 24.84 108.177 23.26V17.74C108.177 16.16 108.497 14.77 109.137 13.57C109.797 12.35 110.717 11.41 111.897 10.75C113.097 10.09 114.477 9.76 116.037 9.76H119.217C120.717 9.76 122.037 10.08 123.177 10.72C124.317 11.36 125.197 12.26 125.817 13.42C126.457 14.56 126.777 15.89 126.777 17.41H122.697C122.697 16.21 122.377 15.25 121.737 14.53C121.097 13.79 120.257 13.42 119.217 13.42H116.037C114.917 13.42 114.017 13.84 113.337 14.68C112.657 15.5 112.317 16.58 112.317 17.92V23.08C112.317 24.42 112.647 25.51 113.307 26.35C113.967 27.17 114.837 27.58 115.917 27.58H119.157C120.217 27.58 121.077 27.17 121.737 26.35C122.417 25.53 122.757 24.45 122.757 23.11H126.837C126.837 24.73 126.517 26.16 125.877 27.4C125.237 28.62 124.337 29.57 123.177 30.25C122.017 30.91 120.677 31.24 119.157 31.24H115.917ZM140.545 26.11H132.685L130.825 31H126.505L134.725 10H136.585C137.885 10 138.765 10.6 139.225 11.8L146.695 31H142.375L140.545 26.11ZM133.795 22.63H139.435L136.645 15.07H136.615L133.795 22.63ZM148.065 10H159.225C161.045 10 162.505 10.49 163.605 11.47C164.725 12.45 165.285 13.74 165.285 15.34V17.44C165.285 18.48 164.985 19.39 164.385 20.17C163.805 20.93 162.955 21.51 161.835 21.91V21.97C162.475 22.39 162.955 22.87 163.275 23.41C163.615 23.95 163.945 24.7 164.265 25.66L165.945 31H161.655L160.065 26.02C159.805 25.16 159.445 24.52 158.985 24.1C158.525 23.68 157.955 23.47 157.275 23.47H152.205V31H148.065V10ZM158.445 19.9C159.285 19.9 159.945 19.68 160.425 19.24C160.905 18.78 161.145 18.19 161.145 17.47V15.52C161.145 14.94 160.965 14.48 160.605 14.14C160.245 13.78 159.765 13.6 159.165 13.6H152.205V19.9H158.445ZM170.707 31C169.847 31 169.147 30.74 168.607 30.22C168.067 29.7 167.797 29.02 167.797 28.18V10H183.817V13.6H171.937V18.46H182.917V22.06H171.937V27.4H183.817V31H170.707Z" fill="#111111"/>
<defs>
<clipPath id="clip0_163_714">
<rect width="34" height="40" fill="white"/>
</clipPath>
</defs>
</svg>
